<svg width="42" height="42" viewBox="0 0 42 42" fill="none" xmlns="http://www.w3.org/2000/svg">
<circle cx="21" cy="21" r="21" fill="#D0EEFF"/>
<path d="M29.6363 27.134C29.1389 25.9558 28.4171 24.8857 27.5111 23.9831C26.6078 23.0779 25.5379 22.3563 24.3602 21.8579C24.3497 21.8526 24.3391 21.85 24.3286 21.8447C25.9713 20.6582 27.0391 18.7255 27.0391 16.5449C27.0391 12.9326 24.1124 10.0059 20.5001 10.0059C16.8878 10.0059 13.961 12.9326 13.961 16.5449C13.961 18.7255 15.0289 20.6582 16.6716 21.8474C16.661 21.8526 16.6505 21.8553 16.6399 21.8605C15.4587 22.3589 14.3987 23.0734 13.489 23.9857C12.5839 24.889 11.8622 25.959 11.3638 27.1366C10.8743 28.2895 10.6102 29.5256 10.586 30.7779C10.5853 30.8061 10.5902 30.8341 10.6005 30.8603C10.6108 30.8865 10.6262 30.9104 10.6459 30.9305C10.6655 30.9507 10.689 30.9667 10.715 30.9776C10.7409 30.9885 10.7688 30.9941 10.7969 30.9941H12.379C12.495 30.9941 12.5873 30.9019 12.5899 30.7885C12.6426 28.7529 13.46 26.8466 14.9049 25.4017C16.4 23.9066 18.3854 23.084 20.5001 23.084C22.6147 23.084 24.6002 23.9066 26.0952 25.4017C27.5401 26.8466 28.3575 28.7529 28.4102 30.7885C28.4129 30.9045 28.5051 30.9941 28.6212 30.9941H30.2032C30.2313 30.9941 30.2592 30.9885 30.2852 30.9776C30.3111 30.9667 30.3346 30.9507 30.3542 30.9305C30.3739 30.9104 30.3893 30.8865 30.3996 30.8603C30.4099 30.8341 30.4148 30.8061 30.4141 30.7779C30.3878 29.5176 30.1267 28.2915 29.6363 27.134V27.134ZM20.5001 21.0801C19.2898 21.0801 18.1507 20.6081 17.2938 19.7512C16.4369 18.8942 15.9649 17.7552 15.9649 16.5449C15.9649 15.3347 16.4369 14.1956 17.2938 13.3387C18.1507 12.4817 19.2898 12.0098 20.5001 12.0098C21.7103 12.0098 22.8494 12.4817 23.7063 13.3387C24.5632 14.1956 25.0352 15.3347 25.0352 16.5449C25.0352 17.7552 24.5632 18.8942 23.7063 19.7512C22.8494 20.6081 21.7103 21.0801 20.5001 21.0801Z" fill="#2085BD"/>
</svg>
