<svg width="32" height="33" viewBox="0 0 32 33" fill="none" xmlns="http://www.w3.org/2000/svg">
<path d="M13.6847 28.2232C16.721 28.2226 19.6697 27.1744 22.0615 25.2457L29.5812 33L32 30.5058L24.4802 22.7514C26.3516 20.2848 27.3687 17.2434 27.3694 14.1116C27.3694 6.33082 21.2301 0 13.6847 0C6.13931 0 0 6.33082 0 14.1116C0 21.8924 6.13931 28.2232 13.6847 28.2232ZM13.6847 3.5279C19.3451 3.5279 23.9483 8.2747 23.9483 14.1116C23.9483 19.9485 19.3451 24.6953 13.6847 24.6953C8.02438 24.6953 3.42118 19.9485 3.42118 14.1116C3.42118 8.2747 8.02438 3.5279 13.6847 3.5279Z" fill="#2085BD"/>
</svg>
