<svg width="127" height="127" viewBox="0 0 127 127" fill="none" xmlns="http://www.w3.org/2000/svg">
<circle cx="63.5" cy="63.5" r="63.5" fill="url(#paint0_linear_178_6686)"/>
<g filter="url(#filter0_i_178_6686)">
<circle cx="63.5" cy="63.5" r="56.5" fill="#AADFFF"/>
</g>
<path d="M24.9642 69.276V66.036L37.3842 49.8H42.3882L30.1482 66.036L27.8082 65.316H47.7882V69.276H24.9642ZM38.7882 75V69.276L38.9322 65.316V60.24H43.3242V75H38.7882ZM53.269 75.252C52.453 75.252 51.757 74.976 51.181 74.424C50.605 73.848 50.317 73.128 50.317 72.264C50.317 71.352 50.605 70.632 51.181 70.104C51.757 69.552 52.453 69.276 53.269 69.276C54.085 69.276 54.781 69.552 55.357 70.104C55.933 70.632 56.221 71.352 56.221 72.264C56.221 73.128 55.933 73.848 55.357 74.424C54.781 74.976 54.085 75.252 53.269 75.252ZM67.746 49.44C70.05 49.44 72.006 49.932 73.614 50.916C75.246 51.876 76.494 53.28 77.358 55.128C78.222 56.976 78.654 59.256 78.654 61.968C78.654 64.848 78.126 67.284 77.07 69.276C76.038 71.268 74.598 72.78 72.75 73.812C70.902 74.844 68.754 75.36 66.306 75.36C65.034 75.36 63.822 75.228 62.67 74.964C61.518 74.7 60.522 74.292 59.682 73.74L61.41 70.212C62.106 70.668 62.862 70.992 63.678 71.184C64.494 71.352 65.334 71.436 66.198 71.436C68.574 71.436 70.458 70.704 71.85 69.24C73.242 67.776 73.938 65.616 73.938 62.76C73.938 62.304 73.926 61.776 73.902 61.176C73.878 60.552 73.794 59.928 73.65 59.304L75.09 60.888C74.682 61.872 74.094 62.7 73.326 63.372C72.558 64.02 71.658 64.512 70.626 64.848C69.594 65.184 68.454 65.352 67.206 65.352C65.574 65.352 64.098 65.04 62.778 64.416C61.482 63.768 60.45 62.868 59.682 61.716C58.914 60.54 58.53 59.172 58.53 57.612C58.53 55.932 58.938 54.492 59.754 53.292C60.57 52.068 61.674 51.12 63.066 50.448C64.482 49.776 66.042 49.44 67.746 49.44ZM67.998 53.112C67.038 53.112 66.186 53.292 65.442 53.652C64.698 53.988 64.11 54.48 63.678 55.128C63.27 55.752 63.066 56.508 63.066 57.396C63.066 58.716 63.522 59.76 64.434 60.528C65.346 61.296 66.57 61.68 68.106 61.68C69.114 61.68 70.002 61.5 70.77 61.14C71.538 60.756 72.138 60.24 72.57 59.592C73.002 58.92 73.218 58.176 73.218 57.36C73.218 56.568 73.014 55.86 72.606 55.236C72.198 54.588 71.61 54.072 70.842 53.688C70.074 53.304 69.126 53.112 67.998 53.112ZM90.1723 75.36C88.3963 75.36 86.6563 75.108 84.9523 74.604C83.2723 74.076 81.8563 73.356 80.7043 72.444L82.6843 68.808C83.5963 69.552 84.7003 70.152 85.9963 70.608C87.3163 71.064 88.6843 71.292 90.1003 71.292C91.7563 71.292 93.0523 70.944 93.9883 70.248C94.9483 69.552 95.4283 68.616 95.4283 67.44C95.4283 66.648 95.2243 65.952 94.8163 65.352C94.4323 64.752 93.7363 64.296 92.7283 63.984C91.7443 63.672 90.3883 63.516 88.6603 63.516H82.5763L83.8723 49.8H98.6683V53.724H85.6003L88.0483 51.492L87.0763 61.752L84.6283 59.556H89.7043C92.2003 59.556 94.2043 59.892 95.7163 60.564C97.2523 61.212 98.3683 62.124 99.0643 63.3C99.7843 64.452 100.144 65.772 100.144 67.26C100.144 68.724 99.7843 70.068 99.0643 71.292C98.3443 72.516 97.2403 73.5 95.7523 74.244C94.2883 74.988 92.4283 75.36 90.1723 75.36Z" fill="#145071"/>
<path d="M77.152 92.724L68.7217 91.4988L64.9532 83.8588C64.8503 83.6496 64.6809 83.4803 64.4717 83.3773C63.9471 83.1184 63.3096 83.3342 63.0473 83.8588L59.2788 91.4988L50.8485 92.724C50.6161 92.7572 50.4036 92.8668 50.2409 93.0328C50.0442 93.235 49.9358 93.507 49.9395 93.789C49.9433 94.071 50.0588 94.34 50.2608 94.5369L56.3602 100.484L54.9192 108.881C54.8854 109.076 54.907 109.277 54.9816 109.461C55.0562 109.644 55.1807 109.803 55.3411 109.92C55.5015 110.036 55.6913 110.106 55.8891 110.12C56.0868 110.134 56.2845 110.092 56.4598 110L64.0003 106.035L71.5407 110C71.7465 110.109 71.9856 110.146 72.2147 110.106C72.7924 110.006 73.1809 109.458 73.0813 108.881L71.6403 100.484L77.7397 94.5369C77.9057 94.3742 78.0153 94.1617 78.0485 93.9293C78.1382 93.3482 77.7331 92.8104 77.152 92.724Z" fill="#195577"/>
<defs>
<filter id="filter0_i_178_6686" x="7" y="7" width="113" height="117" filterUnits="userSpaceOnUse" color-interpolation-filters="sRGB">
<feFlood flood-opacity="0" result="BackgroundImageFix"/>
<feBlend mode="normal" in="SourceGraphic" in2="BackgroundImageFix" result="shape"/>
<feColorMatrix in="SourceAlpha" type="matrix" values="0 0 0 0 0 0 0 0 0 0 0 0 0 0 0 0 0 0 127 0" result="hardAlpha"/>
<feOffset dy="4"/>
<feGaussianBlur stdDeviation="2"/>
<feComposite in2="hardAlpha" operator="arithmetic" k2="-1" k3="1"/>
<feColorMatrix type="matrix" values="0 0 0 0 0 0 0 0 0 0 0 0 0 0 0 0 0 0 0.25 0"/>
<feBlend mode="normal" in2="shape" result="effect1_innerShadow_178_6686"/>
</filter>
<linearGradient id="paint0_linear_178_6686" x1="1.79762e-07" y1="64" x2="1.15046e-05" y2="127" gradientUnits="userSpaceOnUse">
<stop stop-color="#145071"/>
<stop offset="1" stop-color="#00A4FF"/>
</linearGradient>
</defs>
</svg>
