<svg width="127" height="127" viewBox="0 0 127 127" fill="none" xmlns="http://www.w3.org/2000/svg">
<circle cx="63.5" cy="63.5" r="63.5" fill="url(#paint0_linear_178_6685)"/>
<g filter="url(#filter0_i_178_6685)">
<circle cx="63.5" cy="63.5" r="56.5" fill="#AADFFF"/>
</g>
<path d="M45.7833 76.36C44.0073 76.36 42.2673 76.108 40.5633 75.604C38.8833 75.076 37.4673 74.356 36.3153 73.444L38.3313 69.808C39.2433 70.552 40.3473 71.152 41.6433 71.608C42.9393 72.064 44.2953 72.292 45.7113 72.292C47.3913 72.292 48.6993 71.956 49.6353 71.284C50.5713 70.588 51.0393 69.652 51.0393 68.476C51.0393 67.324 50.6073 66.412 49.7433 65.74C48.8793 65.068 47.4873 64.732 45.5673 64.732H43.2633V61.528L50.4633 52.96L51.0753 54.724H37.5393V50.8H54.7113V53.932L47.5113 62.5L45.0633 61.06H46.4673C49.5633 61.06 51.8793 61.756 53.4153 63.148C54.9753 64.516 55.7553 66.28 55.7553 68.44C55.7553 69.856 55.3953 71.164 54.6753 72.364C53.9553 73.564 52.8513 74.536 51.3633 75.28C49.8993 76 48.0393 76.36 45.7833 76.36ZM58.3166 76V72.868L68.3246 63.364C69.1646 62.572 69.7886 61.876 70.1966 61.276C70.6046 60.676 70.8686 60.124 70.9886 59.62C71.1326 59.092 71.2046 58.6 71.2046 58.144C71.2046 56.992 70.8086 56.104 70.0166 55.48C69.2246 54.832 68.0606 54.508 66.5246 54.508C65.3006 54.508 64.1846 54.724 63.1766 55.156C62.1926 55.588 61.3406 56.248 60.6206 57.136L57.3446 54.616C58.3286 53.296 59.6486 52.276 61.3046 51.556C62.9846 50.812 64.8566 50.44 66.9206 50.44C68.7446 50.44 70.3286 50.74 71.6726 51.34C73.0406 51.916 74.0846 52.744 74.8046 53.824C75.5486 54.904 75.9206 56.188 75.9206 57.676C75.9206 58.492 75.8126 59.308 75.5966 60.124C75.3806 60.916 74.9726 61.756 74.3726 62.644C73.7726 63.532 72.8966 64.528 71.7446 65.632L63.1406 73.804L62.1686 72.04H76.8926V76H58.3166ZM83.6258 76V52.6L85.6778 54.724H78.2978V50.8H88.3058V76H83.6258Z" fill="#145071"/>
<path d="M77.334 94C76.9333 94.0029 76.5364 94.078 76.1623 94.2217L72.1657 90.95C72.264 90.5934 72.334 90.2234 72.334 89.8334C72.334 87.5234 70.4773 85.6667 68.1673 85.6667C65.8573 85.6667 64.0007 87.5234 64.0007 89.8334C64.0007 90.4934 64.1673 91.1084 64.4373 91.6617L59.589 97.3917C59.3949 97.3554 59.1981 97.3358 59.0007 97.3334C58.7023 97.3334 58.4207 97.3834 58.1473 97.4567L53.8757 93.185C53.9507 92.9134 54.0007 92.6317 54.0007 92.3334C54.0007 90.4867 52.514 89 50.6673 89C48.8207 89 47.334 90.4867 47.334 92.3334C47.334 94.18 48.8207 95.6667 50.6673 95.6667C50.9657 95.6667 51.2473 95.6167 51.5207 95.5434L55.7923 99.815C55.7122 100.092 55.6701 100.378 55.6673 100.667C55.6673 102.513 57.154 104 59.0007 104C60.8473 104 62.334 102.513 62.334 100.667C62.334 100.272 62.254 99.9 62.129 99.5484L66.984 93.8117C67.3623 93.9217 67.754 94 68.1673 94C68.8251 93.9964 69.4724 93.8358 70.0557 93.5317L74.054 96.8034C74.0226 96.9784 74.0048 97.1556 74.0007 97.3334C74.0007 99.18 75.4873 100.667 77.334 100.667C79.1807 100.667 80.6673 99.18 80.6673 97.3334C80.6673 95.4867 79.1807 94 77.334 94Z" fill="#145071"/>
<defs>
<filter id="filter0_i_178_6685" x="7" y="7" width="113" height="117" filterUnits="userSpaceOnUse" color-interpolation-filters="sRGB">
<feFlood flood-opacity="0" result="BackgroundImageFix"/>
<feBlend mode="normal" in="SourceGraphic" in2="BackgroundImageFix" result="shape"/>
<feColorMatrix in="SourceAlpha" type="matrix" values="0 0 0 0 0 0 0 0 0 0 0 0 0 0 0 0 0 0 127 0" result="hardAlpha"/>
<feOffset dy="4"/>
<feGaussianBlur stdDeviation="2"/>
<feComposite in2="hardAlpha" operator="arithmetic" k2="-1" k3="1"/>
<feColorMatrix type="matrix" values="0 0 0 0 0 0 0 0 0 0 0 0 0 0 0 0 0 0 0.25 0"/>
<feBlend mode="normal" in2="shape" result="effect1_innerShadow_178_6685"/>
</filter>
<linearGradient id="paint0_linear_178_6685" x1="1.79762e-07" y1="64" x2="1.15046e-05" y2="127" gradientUnits="userSpaceOnUse">
<stop stop-color="#145071"/>
<stop offset="1" stop-color="#00A4FF"/>
</linearGradient>
</defs>
</svg>
