<svg width="41" height="43" viewBox="0 0 41 43" fill="none" xmlns="http://www.w3.org/2000/svg">
<path d="M38.8281 0.796875H2.17188C1.29033 0.796875 0.578125 1.53701 0.578125 2.45312V40.5469C0.578125 41.463 1.29033 42.2031 2.17188 42.2031H38.8281C39.7097 42.2031 40.4219 41.463 40.4219 40.5469V2.45312C40.4219 1.53701 39.7097 0.796875 38.8281 0.796875ZM13.3281 33.5078C13.3281 33.7355 13.1488 33.9219 12.9297 33.9219H8.94531C8.72617 33.9219 8.54688 33.7355 8.54688 33.5078V9.49219C8.54688 9.26445 8.72617 9.07812 8.94531 9.07812H12.9297C13.1488 9.07812 13.3281 9.26445 13.3281 9.49219V33.5078ZM22.8906 19.0156C22.8906 19.2434 22.7113 19.4297 22.4922 19.4297H18.5078C18.2887 19.4297 18.1094 19.2434 18.1094 19.0156V9.49219C18.1094 9.26445 18.2887 9.07812 18.5078 9.07812H22.4922C22.7113 9.07812 22.8906 9.26445 22.8906 9.49219V19.0156ZM32.4531 22.7422C32.4531 22.9699 32.2738 23.1562 32.0547 23.1562H28.0703C27.8512 23.1562 27.6719 22.9699 27.6719 22.7422V9.49219C27.6719 9.26445 27.8512 9.07812 28.0703 9.07812H32.0547C32.2738 9.07812 32.4531 9.26445 32.4531 9.49219V22.7422Z" fill="#145071"/>
</svg>
