<svg width="44" height="24" viewBox="0 0 44 24" fill="none" xmlns="http://www.w3.org/2000/svg">
<path d="M39.333 11C38.8121 11.0037 38.2961 11.1014 37.8098 11.2882L32.6142 7.03502C32.742 6.57135 32.833 6.09035 32.833 5.58335C32.833 2.58035 30.4193 0.166687 27.4163 0.166687C24.4133 0.166687 21.9997 2.58035 21.9997 5.58335C21.9997 6.44135 22.2163 7.24085 22.5673 7.96019L16.2645 15.4092C16.0122 15.362 15.7563 15.3366 15.4997 15.3334C15.1118 15.3334 14.7457 15.3984 14.3903 15.4937L8.83717 9.94052C8.93467 9.58735 8.99967 9.22119 8.99967 8.83335C8.99967 6.43269 7.06701 4.50002 4.66634 4.50002C2.26567 4.50002 0.333008 6.43269 0.333008 8.83335C0.333008 11.234 2.26567 13.1667 4.66634 13.1667C5.05417 13.1667 5.42034 13.1017 5.77567 13.0064L11.3288 18.5595C11.2247 18.9195 11.17 19.292 11.1663 19.6667C11.1663 22.0674 13.099 24 15.4997 24C17.9003 24 19.833 22.0674 19.833 19.6667C19.833 19.1532 19.729 18.67 19.5665 18.2129L25.878 10.7552C26.3698 10.8982 26.879 11 27.4163 11C28.2714 10.9953 29.113 10.7866 29.8712 10.3912L35.069 14.6444C35.0282 14.8719 35.0051 15.1022 34.9997 15.3334C34.9997 17.734 36.9323 19.6667 39.333 19.6667C41.7337 19.6667 43.6663 17.734 43.6663 15.3334C43.6663 12.9327 41.7337 11 39.333 11Z" fill="#145071"/>
</svg>
