<svg width="57" height="59" viewBox="0 0 57 59" fill="none" xmlns="http://www.w3.org/2000/svg">
<path d="M23.75 44.25C27.9656 44.2491 32.0597 42.7883 35.3804 40.1003L45.8209 50.9072L49.1791 47.4311L38.7386 36.6242C41.3369 33.1867 42.749 28.9479 42.75 24.5833C42.75 13.7396 34.2261 4.91666 23.75 4.91666C13.2739 4.91666 4.75 13.7396 4.75 24.5833C4.75 35.427 13.2739 44.25 23.75 44.25ZM23.75 9.83332C31.6089 9.83332 38 16.4487 38 24.5833C38 32.7179 31.6089 39.3333 23.75 39.3333C15.8911 39.3333 9.5 32.7179 9.5 24.5833C9.5 16.4487 15.8911 9.83332 23.75 9.83332Z" fill="#145071"/>
</svg>
