<svg width="36" height="34" viewBox="0 0 36 34" fill="none" xmlns="http://www.w3.org/2000/svg">
<path d="M34.2464 12.4826L23.8325 10.9692L19.1772 1.53145C19.0501 1.27306 18.8409 1.06388 18.5825 0.936728C17.9345 0.616806 17.147 0.883408 16.8229 1.53145L12.1677 10.9692L1.7538 12.4826C1.46669 12.5236 1.20419 12.659 1.00322 12.8641C0.760248 13.1138 0.62636 13.4498 0.630975 13.7982C0.635589 14.1466 0.778328 14.4789 1.02783 14.7221L8.5624 22.068L6.78232 32.4408C6.74057 32.6821 6.76728 32.9303 6.85939 33.1572C6.95151 33.3841 7.10536 33.5806 7.3035 33.7245C7.50163 33.8684 7.73612 33.9539 7.98038 33.9713C8.22464 33.9888 8.46889 33.9374 8.68544 33.8231L18.0001 28.9258L27.3147 33.8231C27.569 33.9584 27.8643 34.0035 28.1474 33.9543C28.861 33.8313 29.3409 33.1545 29.2179 32.4408L27.4378 22.068L34.9724 14.7221C35.1774 14.5211 35.3128 14.2586 35.3538 13.9715C35.4645 13.2537 34.9641 12.5893 34.2464 12.4826Z" fill="white"/>
</svg>
