<svg width="28" height="32" viewBox="0 0 28 32" fill="none" xmlns="http://www.w3.org/2000/svg">
<path d="M22.9438 28H4.99813C3.34125 28 1.9975 29.3431 1.9975 30.9438C1.9975 31.55 2.44562 32 2.9975 32H24.9975C25.5499 32 25.9975 31.5523 25.9975 31C26 29.3438 24.6563 28 22.9438 28V28ZM26.0063 10H16.0063V7H17.0069C18.1069 7 19.0056 6.1 19.0056 5C18.9437 3.9 18.1 3 17 3H15.9994V2C16 0.9 15.1 0 13.9438 0C12.9 0 11.9438 0.9 11.9438 2.00062V3H10.9438C9.84375 3 8.94312 3.9 8.94312 5C8.94375 6.1 9.9 7 10.9438 7H11.9444V10H1.94438C1.08375 10 0 10.7188 0 12C0 12.2 0.0295625 12.4 0.0898125 12.5938L4.65375 26H23.3475L27.9112 12.5938C27.9687 12.4 28 12.2 28 12C28 10.725 26.8813 10 26.0063 10Z" fill="white"/>
</svg>
