<svg width="37" height="36" viewBox="0 0 37 36" fill="none" xmlns="http://www.w3.org/2000/svg">
<path fill-rule="evenodd" clip-rule="evenodd" d="M21.0691 10.4918C20.5644 10.8322 19.995 11.0715 19.3942 11.1956C18.7935 11.3197 18.1733 11.3261 17.5699 11.2145C16.9666 11.1028 16.3921 10.8754 15.8801 10.5455C15.368 10.2155 14.9287 9.78961 14.5876 9.29266C14.2465 8.79571 14.0106 8.23765 13.8936 7.65103C13.7766 7.06441 13.7808 6.46099 13.906 5.87598C14.0313 5.29098 14.275 4.7361 14.6231 4.24373C14.9711 3.75136 15.4164 3.33137 15.933 3.00825C16.953 2.35273 18.1983 2.11678 19.3966 2.35196C20.5949 2.58714 21.6487 3.27434 22.3278 4.26333C23.0068 5.25231 23.2559 6.46265 23.0205 7.62977C22.785 8.79689 22.0843 9.82586 21.0714 10.4918H21.0691ZM19.7856 4.88025C19.5338 4.70398 19.2481 4.57881 18.9455 4.5122C18.6429 4.44559 18.3296 4.4389 18.0243 4.49252C17.719 4.54615 17.428 4.659 17.1684 4.82436C16.9089 4.98971 16.6862 5.20419 16.5136 5.45502C16.341 5.70585 16.222 5.9879 16.1638 6.28439C16.1056 6.58088 16.1092 6.88573 16.1746 7.18081C16.24 7.47588 16.3657 7.75514 16.5443 8.00196C16.7229 8.24878 16.9507 8.45812 17.2141 8.6175C17.7232 8.91835 18.3318 9.01653 18.9134 8.89157C19.495 8.76662 20.0046 8.42817 20.336 7.94674C20.6675 7.4653 20.7953 6.878 20.6927 6.30717C20.5902 5.73635 20.2653 5.22602 19.7856 4.8825V4.88025ZM25.8213 4.94775C26.4882 4.51125 27.2907 4.31469 28.0906 4.3919C28.8905 4.46911 29.6377 4.81526 30.2035 5.37075C30.6066 5.76619 30.9039 6.25184 31.0693 6.7851C31.2346 7.31837 31.2629 7.88297 31.1517 8.42937C31.0406 8.97577 30.7933 9.48728 30.4316 9.91904C30.0699 10.3508 29.6049 10.6896 29.0773 10.9058C28.4436 11.1635 27.7453 11.2314 27.0717 11.1008C26.3981 10.9701 25.7799 10.6468 25.2963 10.1723C24.9329 9.81679 24.6546 9.38755 24.4816 8.91525C24.3085 8.44295 24.2449 7.93927 24.2953 7.44025C24.3457 6.94124 24.5088 6.45923 24.773 6.02872C25.0372 5.59821 25.396 5.22985 25.8236 4.95L25.8213 4.94775ZM26.9313 8.57025C27.1484 8.7806 27.4425 8.89842 27.7489 8.89779C27.9006 8.89747 28.0508 8.86809 28.1908 8.81131C28.3308 8.75453 28.458 8.67147 28.5651 8.56688C28.6721 8.46228 28.7569 8.33819 28.8147 8.2017C28.8724 8.0652 28.902 7.91897 28.9017 7.77136C28.9014 7.62375 28.8712 7.47765 28.8128 7.3414C28.7545 7.20514 28.6691 7.08141 28.5616 6.97725C28.3463 6.76657 28.0552 6.64555 27.7499 6.63975C27.5974 6.63945 27.4463 6.66857 27.3054 6.72542C27.1646 6.78227 27.0367 6.86573 26.9292 6.97097C26.8216 7.07621 26.7366 7.20115 26.679 7.33856C26.6214 7.47596 26.5924 7.62311 26.5936 7.7715C26.5944 8.07115 26.7156 8.35863 26.9313 8.5725V8.57025ZM7.37677 28.0958H11.5624V30.357H7.37677C6.64404 30.3506 5.94383 30.0617 5.42964 29.5538C4.91348 29.0439 4.62438 28.3569 4.62489 27.6413V23.5688C4.31355 23.5586 4.00754 23.4872 3.72535 23.3588C3.44316 23.2304 3.19063 23.0477 2.98302 22.8217C2.76242 22.6043 2.58929 22.3457 2.47404 22.0615C2.35879 21.7773 2.30381 21.4734 2.31239 21.168V16.2585C2.31933 15.1965 2.75177 14.1818 3.51489 13.428C4.27571 12.6833 5.30477 12.258 6.38239 12.2513H10.6374C10.0635 12.9163 9.63112 13.6857 9.36552 14.5148H6.38239C5.91305 14.5278 5.46648 14.7145 5.13364 15.0368C4.80671 15.3638 4.62413 15.8023 4.62489 16.2585V21.2805H6.9374V27.639C6.93203 27.7003 6.93952 27.762 6.95939 27.8204C6.97927 27.8788 7.01112 27.9327 7.05302 27.9788C7.14598 28.0486 7.25934 28.088 7.37677 28.0912V28.0958ZM24.258 13.4303C23.8796 13.0585 23.4295 12.7632 22.9334 12.5612C22.4373 12.3593 21.9051 12.2547 21.3674 12.2535H15.6324C14.5543 12.2619 13.5235 12.6849 12.7649 13.4303C12.0018 14.184 11.5693 15.1988 11.5624 16.2608V23.4113C11.5591 24.0252 11.7993 24.6168 12.233 25.0628C12.4409 25.2884 12.6935 25.4709 12.9756 25.5993C13.2577 25.7276 13.5636 25.7992 13.8749 25.8098V31.0365C13.8727 31.3932 13.9431 31.7469 14.082 32.0771C14.2209 32.4072 14.4256 32.7074 14.6843 32.9603C15.1005 33.3383 15.6255 33.5835 16.1874 33.6623H20.8124C21.4628 33.5792 22.0588 33.2651 22.4856 32.7804C22.9125 32.2957 23.1402 31.6746 23.1249 31.0365V25.8075C23.4362 25.7974 23.7423 25.726 24.0244 25.5976C24.3066 25.4692 24.5592 25.2865 24.7668 25.0605C24.9872 24.8434 25.1602 24.5852 25.2755 24.3014C25.3907 24.0176 25.4458 23.714 25.4374 23.409V16.2585C25.439 15.2014 25.0157 14.1856 24.258 13.428V13.4303ZM23.1249 23.5215H20.8124V31.0365C20.8102 31.1551 20.7604 31.2681 20.6736 31.3515C20.6342 31.397 20.5844 31.4328 20.5282 31.4563C20.472 31.4797 20.4109 31.49 20.3499 31.4865H16.6268C16.5059 31.481 16.3915 31.4319 16.306 31.3486C16.2204 31.2654 16.1699 31.1541 16.1643 31.0365V23.5215H13.8749V16.2585C13.8749 15.8018 14.0576 15.363 14.3836 15.0368C14.7165 14.7145 15.1631 14.5278 15.6324 14.5148H21.3674C21.7177 14.5208 22.0586 14.6262 22.3482 14.818C22.6378 15.0099 22.8636 15.2798 22.9977 15.5948C23.0858 15.8054 23.129 16.0312 23.1249 16.2585V23.5215V23.5215ZM29.623 30.3548H25.4374V28.0935H29.5999C29.7173 28.0903 29.8307 28.0509 29.9236 27.981C29.9702 27.9367 30.0067 27.8834 30.0306 27.8244C30.0545 27.7655 30.0653 27.7023 30.0624 27.639V21.2805H32.3749V16.2585C32.3757 15.8023 32.1931 15.3638 31.8661 15.0368C31.5333 14.7145 31.0867 14.5278 30.6174 14.5148H27.6343C27.3688 13.6857 26.9364 12.9162 26.3624 12.2513H30.6174C31.6952 12.2609 32.7256 12.6837 33.4849 13.428C34.248 14.1818 34.6805 15.1965 34.6874 16.2585V21.168C34.6874 21.7823 34.4492 22.3718 34.0191 22.8173C33.589 23.265 33.0016 23.5328 32.3749 23.5665V27.639C32.3749 28.3568 32.0858 29.043 31.5701 29.5515C31.056 30.0595 30.3558 30.3483 29.623 30.3548V30.3548ZM9.2499 4.37625C8.56176 4.37547 7.88906 4.57466 7.31802 4.94826C6.74699 5.32187 6.30363 5.85289 6.04477 6.47325C5.78353 7.09339 5.71571 7.77464 5.84977 8.43204C5.98383 9.08944 6.31384 9.69389 6.79865 10.17C7.28327 10.6456 7.90259 10.9698 8.57751 11.1012C9.25242 11.2327 9.95229 11.1654 10.5877 10.9079C11.2231 10.6505 11.7652 10.2146 12.1448 9.65592C12.5244 9.09725 12.7242 8.44118 12.7186 7.7715C12.7186 6.8715 12.3533 6.0075 11.7011 5.37075C11.38 5.05605 10.9982 4.80619 10.5775 4.63552C10.1568 4.46485 9.70567 4.37674 9.2499 4.37625V4.37625ZM9.2499 8.90325C9.09738 8.90355 8.94632 8.87444 8.80544 8.81758C8.66457 8.76073 8.53667 8.67727 8.42915 8.57203C8.32163 8.46679 8.23662 8.34185 8.17903 8.20444C8.12144 8.06704 8.09242 7.91989 8.09365 7.7715C8.09424 7.47269 8.21604 7.18618 8.43255 6.97426C8.64906 6.76233 8.94279 6.64212 9.2499 6.63975C9.55606 6.645 9.84808 6.76613 10.064 6.97743C10.2798 7.18874 10.4026 7.47358 10.4061 7.7715C10.4055 8.07031 10.2838 8.35682 10.0672 8.56874C9.85073 8.78067 9.557 8.90088 9.2499 8.90325V8.90325Z" fill="white"/>
</svg>
