<svg width="31" height="32" viewBox="0 0 31 32" fill="none" xmlns="http://www.w3.org/2000/svg">
<path d="M26.6406 3.5H4.35938C3.82354 3.5 3.39062 3.94687 3.39062 4.5V27.5C3.39062 28.0531 3.82354 28.5 4.35938 28.5H26.6406C27.1765 28.5 27.6094 28.0531 27.6094 27.5V4.5C27.6094 3.94687 27.1765 3.5 26.6406 3.5ZM11.1406 23.25C11.1406 23.3875 11.0316 23.5 10.8984 23.5H8.47656C8.34336 23.5 8.23438 23.3875 8.23438 23.25V8.75C8.23438 8.6125 8.34336 8.5 8.47656 8.5H10.8984C11.0316 8.5 11.1406 8.6125 11.1406 8.75V23.25ZM16.9531 14.5C16.9531 14.6375 16.8441 14.75 16.7109 14.75H14.2891C14.1559 14.75 14.0469 14.6375 14.0469 14.5V8.75C14.0469 8.6125 14.1559 8.5 14.2891 8.5H16.7109C16.8441 8.5 16.9531 8.6125 16.9531 8.75V14.5ZM22.7656 16.75C22.7656 16.8875 22.6566 17 22.5234 17H20.1016C19.9684 17 19.8594 16.8875 19.8594 16.75V8.75C19.8594 8.6125 19.9684 8.5 20.1016 8.5H22.5234C22.6566 8.5 22.7656 8.6125 22.7656 8.75V16.75Z" fill="white"/>
</svg>
