<svg width="36" height="37" viewBox="0 0 36 37" fill="none" xmlns="http://www.w3.org/2000/svg">
<path d="M15 27.75C17.6625 27.7494 20.2482 26.8334 22.3455 25.1477L28.9395 31.9248L31.0605 29.7449L24.4665 22.9678C26.1075 20.812 26.9994 18.1538 27 15.4167C27 8.61639 21.6165 3.08334 15 3.08334C8.3835 3.08334 3 8.61639 3 15.4167C3 22.217 8.3835 27.75 15 27.75ZM15 6.16668C19.9635 6.16668 24 10.3153 24 15.4167C24 20.5181 19.9635 24.6667 15 24.6667C10.0365 24.6667 6 20.5181 6 15.4167C6 10.3153 10.0365 6.16668 15 6.16668Z" fill="white"/>
</svg>
