<svg width="32" height="32" viewBox="0 0 32 32" fill="none" xmlns="http://www.w3.org/2000/svg">
<mask id="mask0_25_7247" style="mask-type:alpha" maskUnits="userSpaceOnUse" x="2" y="2" width="28" height="28">
<path d="M18.4 12.4V7.6C18.4 7.12724 18.3069 6.65911 18.126 6.22234C17.945 5.78557 17.6799 5.38871 17.3456 5.05442C17.0113 4.72012 16.6144 4.45495 16.1777 4.27403C15.7409 4.09312 15.2728 4 14.8 4L10 14.8V28H23.944C24.5228 28.0065 25.0845 27.8037 25.5255 27.4288C25.9665 27.0539 26.2572 26.5323 26.344 25.96L28 15.16C28.0522 14.816 28.029 14.4648 27.932 14.1307C27.835 13.7966 27.6665 13.4876 27.4382 13.225C27.2099 12.9625 26.9273 12.7527 26.6099 12.6103C26.2925 12.4678 25.9479 12.3961 25.6 12.4H18.4V12.4Z" stroke="white" stroke-width="3" stroke-linejoin="round"/>
<path d="M10 14.6666H6.796C5.39 14.642 4.18867 15.8066 4 17.2V25.6C4.09105 26.2731 4.42608 26.8894 4.9415 27.3318C5.45692 27.7742 6.11685 28.012 6.796 28H10V14.6666Z" fill="white" stroke="white" stroke-width="3" stroke-linejoin="round"/>
</mask>
<g mask="url(#mask0_25_7247)">
<path d="M0 0H32V32H0V0Z" fill="white"/>
</g>
</svg>
