<svg width="2560" height="112" viewBox="0 0 2560 112" fill="none" xmlns="http://www.w3.org/2000/svg">
<path fill-rule="evenodd" clip-rule="evenodd" d="M0 40.0041L53 44.3986C107 48.5692 213 17.0807 320 31.1963C427 45.6327 533 66.1645 640 70.335C747 74.5056 853 61.994 960 58.1443C1067 53.9738 1173 37.9738 1227 39.8986L1280 43.3987V111.399H1227C1173 111.399 1067 111.399 960 111.399C853 111.399 747 111.399 640 111.399C533 111.399 427 111.399 320 111.399C213 111.399 107 111.399 53 111.399H0V40.0041Z" fill="#71C0EC"/>
<path fill-rule="evenodd" clip-rule="evenodd" d="M0 84.3363L44.5 90C99.5 93.5 170.667 79.92 256 75.48C341.333 71.04 426.667 44.4 512 26.64C597.333 8.88 682.667 0 768 0C853.333 0 938.667 8.88 1024 24.42C1109.33 39.96 1194.67 62.16 1237.33 73.26L1280 84.36V111H1237.33C1194.67 111 1109.33 111 1024 111C938.667 111 853.333 111 768 111C682.667 111 597.333 111 512 111C426.667 111 341.333 111 256 111C170.667 111 85.3333 111 42.6667 111H0V84.3363Z" fill="#2085BD"/>
<path fill-rule="evenodd" clip-rule="evenodd" d="M1280 43.0001L1333 49.0001C1387 53.1706 1493 16.6821 1600 30.7977C1707 45.2341 1813 65.7659 1920 69.9364C2027 74.1069 2133 61.5954 2240 57.7457C2347 53.5752 2453 37.5752 2507 39.5H2560V111H2507C2453 111 2347 111 2240 111C2133 111 2027 111 1920 111C1813 111 1707 111 1600 111C1493 111 1387 111 1333 111H1280V43.0001Z" fill="#71C0EC"/>
<path fill-rule="evenodd" clip-rule="evenodd" d="M1280 84.3363L1324.5 90C1379.5 93.5 1450.67 79.92 1536 75.48C1621.33 71.04 1706.67 44.4 1792 26.64C1877.33 8.88 1962.67 0 2048 0C2133.33 0 2218.67 8.88 2304 24.42C2389.33 39.96 2474.67 62.16 2517.33 73.26L2560 84.36V111H2517.33C2474.67 111 2389.33 111 2304 111C2218.67 111 2133.33 111 2048 111C1962.67 111 1877.33 111 1792 111C1706.67 111 1621.33 111 1536 111C1450.67 111 1365.33 111 1322.67 111H1280V84.3363Z" fill="#2085BD"/>
</svg>
