<svg width="173" height="173" viewBox="0 0 173 173" fill="none" xmlns="http://www.w3.org/2000/svg">
<g filter="url(#filter0_d_142_6684)">
<circle cx="86.5" cy="82.5" r="82.5" fill="white"/>
</g>
<path d="M122.03 108.299C120.096 103.717 117.289 99.5553 113.765 96.0454C110.253 92.5253 106.092 89.7188 101.512 87.7808C101.471 87.7603 101.43 87.75 101.389 87.7295C107.777 83.1152 111.93 75.5991 111.93 67.1191C111.93 53.0713 100.548 41.6895 86.5003 41.6895C72.4524 41.6895 61.0706 53.0713 61.0706 67.1191C61.0706 75.5991 65.2234 83.1152 71.6116 87.7397C71.5706 87.7603 71.5296 87.7705 71.4885 87.791C66.8948 89.729 62.7727 92.5078 59.2351 96.0557C55.7151 99.5683 52.9085 103.729 50.9705 108.309C49.0665 112.793 48.0397 117.6 47.9456 122.47C47.9428 122.579 47.962 122.688 48.002 122.79C48.042 122.892 48.102 122.985 48.1785 123.063C48.2549 123.141 48.3463 123.204 48.4472 123.246C48.548 123.289 48.6564 123.311 48.7659 123.311H54.9182C55.3694 123.311 55.7283 122.952 55.7385 122.511C55.9436 114.595 59.1223 107.181 64.7415 101.562C70.5554 95.748 78.2766 92.5488 86.5003 92.5488C94.7239 92.5488 102.445 95.748 108.259 101.562C113.878 107.181 117.057 114.595 117.262 122.511C117.272 122.962 117.631 123.311 118.082 123.311H124.235C124.344 123.311 124.452 123.289 124.553 123.246C124.654 123.204 124.746 123.141 124.822 123.063C124.899 122.985 124.958 122.892 124.998 122.79C125.038 122.688 125.058 122.579 125.055 122.47C124.952 117.568 123.937 112.8 122.03 108.299V108.299ZM86.5003 84.7559C81.7937 84.7559 77.364 82.9204 74.0315 79.5879C70.699 76.2554 68.8635 71.8257 68.8635 67.1191C68.8635 62.4126 70.699 57.9829 74.0315 54.6504C77.364 51.3179 81.7937 49.4824 86.5003 49.4824C91.2068 49.4824 95.6365 51.3179 98.969 54.6504C102.302 57.9829 104.137 62.4126 104.137 67.1191C104.137 71.8257 102.302 76.2554 98.969 79.5879C95.6365 82.9204 91.2068 84.7559 86.5003 84.7559Z" fill="#2085BD"/>
<defs>
<filter id="filter0_d_142_6684" x="0" y="0" width="173" height="173" filterUnits="userSpaceOnUse" color-interpolation-filters="sRGB">
<feFlood flood-opacity="0" result="BackgroundImageFix"/>
<feColorMatrix in="SourceAlpha" type="matrix" values="0 0 0 0 0 0 0 0 0 0 0 0 0 0 0 0 0 0 127 0" result="hardAlpha"/>
<feOffset dy="4"/>
<feGaussianBlur stdDeviation="2"/>
<feComposite in2="hardAlpha" operator="out"/>
<feColorMatrix type="matrix" values="0 0 0 0 0 0 0 0 0 0 0 0 0 0 0 0 0 0 0.25 0"/>
<feBlend mode="normal" in2="BackgroundImageFix" result="effect1_dropShadow_142_6684"/>
<feBlend mode="normal" in="SourceGraphic" in2="effect1_dropShadow_142_6684" result="shape"/>
</filter>
</defs>
</svg>
