<svg width="42" height="42" viewBox="0 0 42 42" fill="none" xmlns="http://www.w3.org/2000/svg">
<path d="M37.2464 14.4826L26.8325 12.9691L22.1772 3.53142C22.0501 3.27303 21.8409 3.06385 21.5825 2.9367C20.9345 2.61678 20.147 2.88338 19.8229 3.53142L15.1677 12.9691L4.7538 14.4826C4.46669 14.5236 4.20419 14.659 4.00322 14.864C3.76025 15.1138 3.62636 15.4497 3.63097 15.7981C3.63559 16.1465 3.77833 16.4788 4.02783 16.722L11.5624 24.0679L9.78232 34.4408C9.74057 34.6821 9.76728 34.9303 9.85939 35.1572C9.95151 35.384 10.1054 35.5806 10.3035 35.7245C10.5016 35.8684 10.7361 35.9539 10.9804 35.9713C11.2246 35.9887 11.4689 35.9374 11.6854 35.823L21.0001 30.9258L30.3147 35.823C30.569 35.9584 30.8643 36.0035 31.1474 35.9543C31.861 35.8312 32.3409 35.1545 32.2179 34.4408L30.4378 24.0679L37.9724 16.722C38.1774 16.5211 38.3128 16.2586 38.3538 15.9715C38.4645 15.2537 37.9641 14.5892 37.2464 14.4826Z" fill="#195577"/>
</svg>
